{"title":"Ratatouille 2007 3D 1080p BluRay Half SBS DTS x264 HDA DUAL-ASM","uid":11136882,"size":10533019022,"categoryP":"video","categoryS":"3d","magnet":"?xt=urn:btih:9c21fa9ba8b3d3c787e67bb478ebe64a571e9b66&amp;dn=Ratatouille+2007+3D+1080p+BluRay+Half+SBS+DTS+x264+HDA+DUAL-ASM&amp;tr=udp%3A%2F%2Ftracker.openbittorrent.com%3A80&amp;tr=udp%3A%2F%2Fopen.demonii.com%3A1337&amp;tr=udp%3A%2F%2Ftracker.coppersurfer.tk%3A6969&amp;tr=udp%3A%2F%2Fexodus.desync.com%3A6969","seeders":4,"leechers":2,"uploader":"Alemao99","files":8,"time":1412118513,"description":"In the new animated adventure Ratatouille, a rat named Remy dreams of becoming a great French chef despite his family's wishes and the obvious problem of being a rat in a decidedly rodent-phobic profession. When fate leads to the sewers of Paris, he finds himself ideally Remy situated beneath a restaurant made famous by his culinary hero, Auguste Gusteau. Despite the apparent dangers of being an inappropriate - and certainly unwanted - visitor in the kitchen of a fine French restaurant, Remy's passion for cooking soon sets into motion a hilarious and exciting rat race that turns the culinary world of Paris . Remy finds himself torn between his calling and the obligation of returning forever to his previous existence as a rat. He learns the truth about friendship, family and understands that his only option is to accept who he really is, a rat who wants to be a chef. \n\nTitle in Brazil: Ratatouille \nOriginal Title: Ratatouille \nDirector: Brad Bird / Jan Pinkava \nDuration: 111 Min \nRelease: 2007 \nGenre: Animation \nIMDB: http://www.imdb.com/title/tt0382932 \n\nSize: 9.81 GB \nFile Extension: .MKV \nVideo Quality: Bluray - 3D \nVideo Codec: H.264 / AVC \nAudio Codec: AC3 5.1 / DTS 5.1 \nResolution: 1920 x 1080 \nAudio Language: Portuguese / English \nSubtitles: Portuguese \n\nSCREENS\n\n\n\nComplete name: Ratatouille.2007.3D.1080p.BluRay.Half-SBS.DTS.x264-HDA.DUAL-ASM.mkv\nFormat                                   : Matroska\nFormat version                           : Version 2\nFile size                                : 9.79 GiB\nDuration                                 : 1h 51mn\nOverall bit rate                         : 12.6 Mbps\nEncoded date                             : UTC 2014-08-05 02:08:12\nWriting application                      : mkvmerge v4.0.0 ('The Stars were mine') built on Jun  6 2010 16:18:42\nWriting library                          : libebml v1.0.0 + libmatroska v1.0.0\n\nVideo\nID                                       : 1\nFormat                                   : AVC\nFormat/Info                              : Advanced Video Codec\nFormat profile                           : &lt;a class=&quot;__cf_email__&quot; href=&quot;/cdn-cgi/l/email-protection&quot; data-cfemail=&quot;d69ebfb1be969ae2f8e7&quot;&gt;[email&amp;#160;protected]&lt;/a&gt;&lt;script cf-hash='f9e31' type=&quot;text/javascript&quot;&gt;\n/* &lt;![CDATA[ */!function(){try{var t=&quot;currentScript&quot;in document?document.currentScript:function(){for(var t=document.getElementsByTagName(&quot;script&quot;),e=t.length;e--;)if(t[e].getAttribute(&quot;cf-hash&quot;))return t[e]}();if(t&amp;&amp;t.previousSibling){var e,r,n,i,c=t.previousSibling,a=c.getAttribute(&quot;data-cfemail&quot;);if(a){for(e=&quot;&quot;,r=parseInt(a.substr(0,2),16),n=2;a.length-n;n+=2)i=parseInt(a.substr(n,2),16)^r,e+=String.fromCharCode(i);e=document.createTextNode(e),c.parentNode.replaceChild(e,c)}}}catch(u){}}();/* ]]&gt; */&lt;/script&gt;\nFormat settings, CABAC                   : Yes\nFormat settings, ReFrames                : 4 frames\nCodec ID                                 : V_MPEG4/ISO/AVC\nDuration                                 : 1h 51mn\nBit rate                                 : 10.4 Mbps\nWidth                                    : 1 920 pixels\nHeight                                   : 1 080 pixels\nDisplay aspect ratio                     : 16:9\nFrame rate                               : 23.976 fps\nColor space                              : YUV\nChroma subsampling                       : 4:2:0\nBit depth                                : 8 bits\nScan type                                : Progressive\nBits/(Pixel*Frame)                       : 0.210\nStream size                              : 8.12 GiB (83%)\nWriting library                          : x264 core 142 r2431 ac76440\nEncoding settings                        : cabac=1 / ref=4 / deblock=1:-2:-2 / analyse=0x3:0x133 / me=esa / subme=9 / psy=1 / psy_rd=0.75:0.00 / mixed_ref=1 / me_range=24 / chroma_me=1 / trellis=1 / 8x8dct=1 / cqm=0 / deadzone=21,11 / fast_pskip=0 / chroma_qp_offset=-2 / threads=6 / lookahead_threads=1 / sliced_threads=0 / nr=0 / decimate=1 / interlaced=0 / bluray_compat=0 / constrained_intra=0 / bframes=6 / b_pyramid=2 / b_adapt=2 / b_bias=0 / direct=3 / weightb=1 / open_gop=0 / weightp=2 / keyint=9 / keyint_min=1 / scenecut=40 / intra_refresh=0 / rc_lookahead=17 / rc=crf / mbtree=0 / crf=14.9 / qcomp=0.60 / qpmin=0 / qpmax=69 / qpstep=4 / vbv_maxrate=40000 / vbv_bufsize=30000 / crf_max=0.0 / nal_hrd=none / filler=0 / ip_ratio=1.40 / pb_ratio=1.30 / aq=1:0.70\nDefault                                  : No\nForced                                   : No\n\nAudio #1\nID                                       : 2\nFormat                                   : AC-3\nFormat/Info                              : Audio Coding 3\nMode extension                           : CM (complete main)\nFormat settings, Endianness              : Big\nCodec ID                                 : A_AC3\nDuration                                 : 1h 51mn\nBit rate mode                            : Constant\nBit rate                                 : 384 Kbps\nChannel(s)                               : 6 channels\nChannel positions                        : Front: L C R, Side: L R, LFE\nSampling rate                            : 48.0 KHz\nBit depth                                : 16 bits\nCompression mode                         : Lossy\nStream size                              : 306 MiB (3%)\nTitle                                    : AC3 5.1 - ASM\nLanguage                                 : Portuguese\nDefault                                  : Yes\nForced                                   : Yes\n\nAudio #2\nID                                       : 3\nFormat                                   : DTS\nFormat/Info                              : Digital Theater Systems\nCodec ID                                 : A_DTS\nDuration                                 : 1h 51mn\nBit rate mode                            : Constant\nBit rate                                 : 1 510 Kbps\nChannel(s)                               : 6 channels\nChannel positions                        : Front: L C R, Side: L R, LFE\nSampling rate                            : 48.0 KHz\nBit depth                                : 24 bits\nCompression mode                         : Lossy\nDelay relative to video                  : 11ms\nStream size                              : 1.18 GiB (12%)\nTitle                                    : DTS 5.1 - ASM\nLanguage                                 : English\nDefault                                  : No\nForced                                   : No","torrent":{"xt":"urn:btih:9c21fa9ba8b3d3c787e67bb478ebe64a571e9b66","amp;dn":"Ratatouille+2007+3D+1080p+BluRay+Half+SBS+DTS+x264+HDA+DUAL-ASM","amp;tr":["udp%3A%2F%2Ftracker.openbittorrent.com%3A80","udp%3A%2F%2Fopen.demonii.com%3A1337","udp%3A%2F%2Ftracker.coppersurfer.tk%3A6969","udp%3A%2F%2Fexodus.desync.com%3A6969"],"infoHash":"9c21fa9ba8b3d3c787e67bb478ebe64a571e9b66","infoHashBuffer":{"type":"Buffer","data":[156,33,250,155,168,179,211,199,135,230,123,180,120,235,230,74,87,30,155,102]},"announce":[],"urlList":[]}}